<?xml version="1.0" encoding="UTF-8" standalone="no"?>
<svg
   xmlns:dc="http://purl.org/dc/elements/1.1/"
   xmlns:cc="http://creativecommons.org/ns#"
   xmlns:rdf="http://www.w3.org/1999/02/22-rdf-syntax-ns#"
   xmlns:svg="http://www.w3.org/2000/svg"
   xmlns="http://www.w3.org/2000/svg"
   xmlns:xlink="http://www.w3.org/1999/xlink"
   width="69.398537mm"
   height="64.409538mm"
   viewBox="0 0 69.398537 64.409538"
   version="1.1"
   id="svg3158">
  <defs
     id="defs3152">
    <linearGradient
       id="linearGradient3735">
      <stop
         style="stop-color:#ff006c;stop-opacity:1"
         offset="0"
         id="stop3731" />
      <stop
         style="stop-color:#ffff00;stop-opacity:0;"
         offset="1"
         id="stop3733" />
    </linearGradient>
    <linearGradient
       xlink:href="#linearGradient3735"
       id="linearGradient3737"
       x1="131.99147"
       y1="251.85231"
       x2="434.28516"
       y2="290.42374"
       gradientUnits="userSpaceOnUse" />
  </defs>
  <metadata
     id="metadata3155">
    <rdf:RDF>
      <cc:Work
         rdf:about="">
        <dc:format>image/svg+xml</dc:format>
        <dc:type
           rdf:resource="http://purl.org/dc/dcmitype/StillImage" />
        <dc:title></dc:title>
      </cc:Work>
    </rdf:RDF>
  </metadata>
  <g
     id="layer1"
     transform="translate(-41.159349,-44.636518)">
    <path
       id="rect3160"
       style="fill:url(#linearGradient3737);fill-opacity:1;stroke:#000000;stroke-width:0;stroke-linecap:round;stroke-linejoin:round;stroke-miterlimit:4;stroke-dasharray:none;stroke-dashoffset:7.61197;paint-order:fill markers stroke"
       d="m 243.49023,168.70508 c -26.63956,0.0555 -53.54133,14.12159 -70.16992,39.55078 l -3.12695,4.7832 c -25.3388,38.74924 -16.94236,88.77442 18.82617,112.16406 l 39.46485,25.8086 c 31.37817,20.5202 53.11906,61.1311 101.51562,61.13086 57.59491,-2.3e-4 87.85619,-35.49725 87.85659,-79.28516 8.1e-4,-33.52462 -16.57337,-51.5169 -52.83901,-74.68359 -15.65543,-10.00077 -60.36131,-26.2879 -66.17969,-44.80469 l -8.07394,-25.69503 c -4.40391,-14.01528 -33.31966,-18.9981 -47.27372,-18.96903 z"
       transform="scale(0.26458333)" />
  </g>
</svg>
